<?xml version="1.0" encoding="utf-8"?>
<!-- Generator: Adobe Illustrator 18.0.0, SVG Export Plug-In . SVG Version: 6.00 Build 0)  -->
<!DOCTYPE svg PUBLIC "-//W3C//DTD SVG 1.1//EN" "http://www.w3.org/Graphics/SVG/1.1/DTD/svg11.dtd">
<svg version="1.1" id="Capa_1" xmlns="http://www.w3.org/2000/svg" xmlns:xlink="http://www.w3.org/1999/xlink" x="0px" y="0px"
	 viewBox="0 0 612 792" enable-background="new 0 0 612 792" xml:space="preserve">
<g>
	<path fill="#FFFFFF" d="M130.8,505.5c-6,0-10.9,4.9-10.9,10.9c0,5.8-4.7,10.5-10.5,10.5c-5.8,0-10.5-4.7-10.5-10.5
		c0-5.8,4.7-10.5,10.5-10.5c6,0,10.9-4.9,10.9-10.9s-4.9-10.9-10.9-10.9c-17.8,0-32.4,14.5-32.4,32.4c0,17.8,14.5,32.4,32.4,32.4
		c17.8,0,32.4-14.5,32.4-32.4C141.7,510.4,136.8,505.5,130.8,505.5z"/>
	<path fill="#FFFFFF" d="M524.7,505.5c-6,0-10.9,4.9-10.9,10.9c0,5.8-4.7,10.5-10.5,10.5c-5.8,0-10.5-4.7-10.5-10.5
		c0-5.8,4.7-10.5,10.5-10.5c6,0,10.9-4.9,10.9-10.9s-4.9-10.9-10.9-10.9c-17.8,0-32.4,14.5-32.4,32.4c0,17.8,14.5,32.4,32.4,32.4
		c17.8,0,32.4-14.5,32.4-32.4C535.6,510.4,530.7,505.5,524.7,505.5z"/>
	<path fill="#FFFFFF" d="M610.5,365.7l-41.9-71c-14.4-24-27.9-38-55.1-40.3c-0.9-0.2-1.8-0.4-2.8-0.4h-83.8v-22.2
		c0-12.1-9.8-21.9-21.9-21.9H21.9C9.8,210,0,219.8,0,231.8v273.7c0,12.1,9.8,21.9,21.9,21.9h22.8c5.2,31,32.2,54.7,64.7,54.7
		c32.4,0,59.4-23.7,64.7-54.7h264.6c5.2,31,32.2,54.7,64.7,54.7c32.4,0,59.4-23.7,64.7-54.7h33.1c6,0,10.9-4.9,10.9-10.9V371.3
		C612,369.3,611.5,367.4,610.5,365.7z M568.9,407.6c0-6,4.9-10.9,10.9-10.9h10.4v21.5h-21.3V407.6z M583.6,363.2H483.2
		c-0.7-0.1-1.5-0.2-2.2-0.2c-6.1,0-11.1-5-11.1-11.1V308H551L583.6,363.2z M21.9,231.8H405v273.7H174c-5.2-31-32.2-54.7-64.7-54.7
		c-32.5,0-59.5,23.7-64.7,54.7H21.9V231.8z M109.3,560.2c-24.1,0-43.7-19.6-43.7-43.7c0-24.1,19.6-43.7,43.7-43.7
		c24.1,0,43.7,19.6,43.7,43.7C153.1,540.5,133.5,560.2,109.3,560.2z M503.3,560.2c-24.1,0-43.7-19.6-43.7-43.7
		c0-24.1,19.6-43.7,43.7-43.7c24.1,0,43.7,19.6,43.7,43.7C547,540.5,527.4,560.2,503.3,560.2z M567.9,505.5
		c-5.2-31-32.2-54.7-64.7-54.7c-32.5,0-59.5,23.7-64.7,54.7h-11.7V275.9h78c13.9,0,22.7,2.9,30.3,10.2h-76.3
		c-6,0-10.9,4.9-10.9,10.9v54.7c0,17.3,13.4,31.5,30.3,32.9c0.9,0.2,1.8,0.3,2.7,0.3h75.1c-5.6,5.9-9.1,13.8-9.1,22.6v21.5
		c0,6,4.9,10.9,10.9,10.9h32.2v65.4L567.9,505.5L567.9,505.5z"/>
	<path fill="#FFFFFF" d="M55.1,275.9h316.7c6,0,10.9-4.9,10.9-10.9c0-6-4.9-10.9-10.9-10.9H55.1c-6,0-10.9,4.9-10.9,10.9
		C44.2,271,49.1,275.9,55.1,275.9z"/>
</g>
</svg>
