<?xml version="1.0" encoding="utf-8"?>
<!-- Generator: Adobe Illustrator 18.0.0, SVG Export Plug-In . SVG Version: 6.00 Build 0)  -->
<!DOCTYPE svg PUBLIC "-//W3C//DTD SVG 1.1//EN" "http://www.w3.org/Graphics/SVG/1.1/DTD/svg11.dtd">
<svg version="1.1" id="Capa_1" xmlns="http://www.w3.org/2000/svg" xmlns:xlink="http://www.w3.org/1999/xlink" x="0px" y="0px"
	 viewBox="0 0 612 792" enable-background="new 0 0 612 792" xml:space="preserve">
<g>
	<path fill="#FFFFFF" d="M0.1,455.9c-0.7,6.9,1.4,13.6,5.7,18.9l151,183.9c4.4,5.3,10.6,8.6,17.4,9.3c0.9,0.1,1.7,0.1,2.6,0.1
		c6,0,11.7-2,16.4-5.9l356.9-293.2c11-9,34.3-102.6,35.7-117c0.5-5.1,0.5-10.4-3.2-14.8l-14-17.1c-4.5-5.5-12.5-6.3-18-1.8
		c-5.5,4.5-6.2,12.5-1.8,18l11.5,14c-1.8,17.6-21.8,87.5-28,100.1L176.7,642.5l-151-184.2l355.4-291.9c13.6-3.6,86-9.7,103.6-8
		l11.5,14c4.5,5.5,12.5,6.3,18,1.8c5.5-4.5,6.2-12.5,1.8-18l-14-17.1c-3.6-4.4-8.8-5.5-13.9-6c-14.4-1.5-110.7,3.3-121.7,12.3
		L9.5,438.5C4.1,442.9,0.8,449.1,0.1,455.9z"/>
	<path fill="#FFFFFF" d="M609.1,128.5c-4.5-5.4-12.5-6.3-18-1.8L452.8,240.3c-5.5,4.5-6.2,12.5-1.8,18c2.5,3.1,6.2,4.7,9.9,4.7
		c2.9,0,5.7-0.9,8.1-2.9l138.3-113.6C612.8,142,613.6,133.9,609.1,128.5z"/>
	<path fill="#FFFFFF" d="M431.8,227.2c5.6-4.6,12.4-7.4,19.6-8.1c7-0.7,12.2-6.9,11.5-13.9c-0.7-7-6.8-12.4-13.9-11.5
		c-12.3,1.2-23.8,5.9-33.4,13.8c-12.8,10.5-20.7,25.3-22.3,41.7c-1.6,16.4,3.3,32.5,13.8,45.2c12.2,14.8,29.9,22.5,47.8,22.5
		c13.8,0,27.7-4.6,39.2-14c12.7-10.5,20.7-25.3,22.3-41.7c0.7-7-4.4-13.3-11.5-14c-7.1-0.6-13.3,4.4-14,11.5
		c-0.9,9.6-5.6,18.3-13.1,24.4c-7.5,6.1-16.9,9-26.5,8.1c-9.6-0.9-18.3-5.6-24.5-13.1c-6.1-7.5-9-16.9-8.1-26.5
		C419.7,242.1,424.3,233.4,431.8,227.2z"/>
</g>
</svg>
