<?xml version="1.0" encoding="utf-8"?>
<!-- Generator: Adobe Illustrator 18.0.0, SVG Export Plug-In . SVG Version: 6.00 Build 0)  -->
<!DOCTYPE svg PUBLIC "-//W3C//DTD SVG 1.1//EN" "http://www.w3.org/Graphics/SVG/1.1/DTD/svg11.dtd">
<svg version="1.1" id="Capa_1" xmlns="http://www.w3.org/2000/svg" xmlns:xlink="http://www.w3.org/1999/xlink" x="0px" y="0px"
	 viewBox="0 0 612 792" enable-background="new 0 0 612 792" xml:space="preserve">
<g>
	<path fill="#FFFFFF" d="M603.3,629.1H502.1l35.8-11.2c5.9-1.8,10.8-5.9,13.7-11.4c2.9-5.5,3.5-11.8,1.6-17.7l-133.4-427
		c-3-9.8-12-16.3-22.2-16.3c-2.4,0-4.7,0.4-6.9,1.1l-82,25.6c-0.8,0.2-1.5,0.5-2.3,0.9v-3.4c0-12.8-10.4-23.2-23.2-23.2h-86.5
		c-5.5,0-10.5,1.9-14.5,5.1c-4-3.2-9-5.1-14.5-5.1H81c-12.8,0-23.3,10.4-23.3,23.2v459.5h-49c-4.8,0-8.7,3.9-8.7,8.7
		s3.9,8.7,8.7,8.7h594.5c4.8,0,8.7-3.9,8.7-8.7C612,633,608.1,629.1,603.3,629.1z M536.1,598.4c-0.7,1.4-1.9,2.4-3.4,2.8l-82,25.6
		c-0.6,0.2-1.1,0.3-1.7,0.3c-2.5,0-4.8-1.7-5.5-4.1l-98.4-314.8l93-29.1L536.5,594C537,595.5,536.8,597,536.1,598.4z M432.9,262.5
		l-93,29.1l-10.6-34l93-29.1L432.9,262.5z M313.8,188.8l82-25.6c0.6-0.2,1.1-0.3,1.7-0.3c2.5,0,4.7,1.6,5.5,4.1l14,44.8l-93,29.1
		l-14-44.8C309.1,193,310.8,189.8,313.8,188.8z M427.1,629.1H306.3V242.8L427.1,629.1z M190.9,349.3h98v24.3h-98V349.3z
		 M288.8,331.8h-98v-85.6h98V331.8z M173.4,269.5H75.2v-23.2h98.2V269.5z M75.2,286.9h98.2v23.2H75.2V286.9z M190.9,391.1h98v238
		h-98V391.1z M196.6,163.8h86.5c3.2,0,5.8,2.6,5.8,5.8v59.2h-98v-59.2C190.9,166.4,193.4,163.8,196.6,163.8z M81,163.8h86.6
		c3.2,0,5.8,2.6,5.8,5.8v59.2H75.2v-59.2C75.2,166.4,77.8,163.8,81,163.8z M75.2,327.7h98.2v301.4H75.2V327.7z"/>
</g>
</svg>
